<svg xmlns="http://www.w3.org/2000/svg" height="100" width="100">

    <path xmlns="http://www.w3.org/2000/svg"
        d="M18.325,51.321c-0.037-0.28-0.083-0.559-0.112-0.841C18.247,50.762,18.283,51.043,18.325,51.321z"></path>
    <path xmlns="http://www.w3.org/2000/svg"
        d="M30.995,67.402c-2.888-9.806-7.743-16.062-14.944-19.147c0.026,0.69,0.075,1.375,0.142,2.054  c0.006,0.057,0.014,0.114,0.02,0.171c0.029,0.283,0.075,0.561,0.112,0.841c1.31,10.004,7.071,18.6,15.266,23.7  c0.065-0.356,0.111-0.727,0.146-1.103C31.92,72.003,31.713,69.84,30.995,67.402z"></path>
    <path xmlns="http://www.w3.org/2000/svg"
        d="M85.805,48.255c-7.201,3.086-12.057,9.342-14.944,19.147c-0.707,2.4-0.917,4.535-0.749,6.429  c0.036,0.407,0.084,0.807,0.154,1.19c7.158-4.455,12.459-11.579,14.562-19.977C85.374,52.858,85.717,50.59,85.805,48.255z"></path>
    <path xmlns="http://www.w3.org/2000/svg"
        d="M84,47c0-14.892-9.866-27.475-23.417-31.582c-1.938,3.516-4.745,6.485-8.147,8.603c-0.283-1.545-0.188-3.342,0.422-5.415  c0.474-1.608,1.025-3.077,1.652-4.419C53.355,14.065,52.186,14,51,14c-1.186,0-2.356,0.065-3.51,0.188  c0.626,1.343,1.178,2.811,1.652,4.419c0.609,2.072,0.706,3.869,0.423,5.415c-3.402-2.118-6.208-5.087-8.147-8.604  C27.866,19.524,18,32.108,18,47c0,1.132,0.071,2.232,0.193,3.309c-0.067-0.679-0.116-1.364-0.142-2.054  c7.202,3.086,12.056,9.342,14.944,19.147c0.718,2.438,0.925,4.601,0.742,6.517c2.25,1.629,4.635,3.118,7.084,4.474  C47.934,82.329,51,92.5,51,92.5s3.769-10.406,10.017-14.053c2.44-1.424,4.831-2.958,7.095-4.616  c-0.168-1.894,0.042-4.028,0.749-6.429c2.888-9.806,7.743-16.062,14.944-19.147c-0.088,2.335-0.431,4.604-0.978,6.79  C83.582,52.542,84,49.869,84,47z M63,53c-5.952,0-10.958-3.851-12.5-9.099C48.958,49.149,43.952,53,38,53c-7.18,0-13-5.597-13-12.5  S30.82,28,38,28c5.952,0,10.958,3.851,12.5,9.099C52.042,31.851,57.048,28,63,28c7.18,0,13,5.597,13,12.5S70.18,53,63,53z"></path>
    <path xmlns="http://www.w3.org/2000/svg"
        d="M52.436,22.021c3.402-2.118,6.209-5.087,8.147-8.603C62.298,10.308,63.336,6.771,63.479,3  c-3.936,1.687-6.883,4.712-8.969,9.188c-0.627,1.343-1.179,2.811-1.652,4.419C52.248,18.679,52.152,20.476,52.436,22.021z"></path>
    <path xmlns="http://www.w3.org/2000/svg"
        d="M49.565,22.021c0.283-1.545,0.187-3.342-0.423-5.415c-0.474-1.608-1.026-3.077-1.652-4.419  C45.404,7.712,42.458,4.687,38.522,3c0.142,3.771,1.18,7.308,2.896,10.418C43.356,16.934,46.163,19.904,49.565,22.021z"></path>
    <ellipse xmlns="http://www.w3.org/2000/svg" stroke="#f327a5" stroke-width="0.5"
        stroke-miterlimit="10" cx="57" cy="71.333" rx="1" ry="1.667"></ellipse>
    <ellipse xmlns="http://www.w3.org/2000/svg" stroke="#f327a5" stroke-width="0.5"
        stroke-miterlimit="10" cx="59" cy="71.333" rx="1" ry="1.667"></ellipse>
    <ellipse xmlns="http://www.w3.org/2000/svg" stroke="#f327a5" stroke-width="0.5"
        stroke-miterlimit="10" cx="55" cy="71.333" rx="1" ry="1.667"></ellipse>
    <ellipse xmlns="http://www.w3.org/2000/svg" stroke="#f327a5" stroke-width="0.5"
        stroke-miterlimit="10" cx="45" cy="71.333" rx="1" ry="1.667"></ellipse>
    <ellipse xmlns="http://www.w3.org/2000/svg" stroke="#f327a5" stroke-width="0.5"
        stroke-miterlimit="10" cx="47" cy="71.333" rx="1" ry="1.667"></ellipse>
    <ellipse xmlns="http://www.w3.org/2000/svg" stroke="#f327a5" stroke-width="0.5"
        stroke-miterlimit="10" cx="43" cy="71.333" rx="1" ry="1.667"></ellipse>
    <path xmlns="http://www.w3.org/2000/svg" stroke="#f327a5" stroke-miterlimit="10"
        d="M49,48.5c0,2.442,0.74,4.715,2,6.641c1.26-1.926,2-4.198,2-6.641  s-0.74-4.715-2-6.641C49.74,43.785,49,46.058,49,48.5z"
    ></path>
    <path xmlns="http://www.w3.org/2000/svg"
        d="M63.581,30.163c-5.201,0-9.418,4.217-9.418,9.419c0,5.201,4.217,9.418,9.418,9.418C68.783,49,73,44.783,73,39.582  C73,34.379,68.783,30.163,63.581,30.163z M63.582,46c-3.348,0-6.061-2.132-6.061-4.762c0-0.296,0.039-0.585,0.104-0.865  c0.52,2.215,2.986,3.896,5.957,3.896s5.436-1.681,5.955-3.896c0.066,0.28,0.105,0.569,0.105,0.865C69.643,43.868,66.93,46,63.582,46  z"></path>
    <path xmlns="http://www.w3.org/2000/svg"
        d="M37.418,30.163c-5.202,0-9.418,4.217-9.418,9.419C28,44.783,32.217,49,37.418,49c5.202,0,9.419-4.217,9.419-9.418  C46.837,34.379,42.621,30.163,37.418,30.163z M37.582,46c-3.348,0-6.061-2.132-6.061-4.762c0-0.296,0.039-0.585,0.104-0.865  c0.52,2.215,2.986,3.896,5.957,3.896s5.436-1.681,5.955-3.896c0.066,0.28,0.105,0.569,0.105,0.865C43.643,43.868,40.93,46,37.582,46  z"></path>
</svg>